<svg xmlns="http://www.w3.org/2000/svg" width="20" height="20" viewBox="0 0 20 20">
  <g id="Store" transform="translate(-22 -365)">
    <rect id="Content" width="20" height="20" transform="translate(22 365)" fill="none"/>
    <g id="그룹_299" data-name="그룹 299" transform="translate(23.818 366.818)">
      <path id="패스_12" data-name="패스 12" d="M19.318,11.5v8.182a.512.512,0,0,1-.511.511H5.511A.512.512,0,0,1,5,19.682V11.5" transform="translate(-3.978 -3.83)" fill="none" stroke="#34303d" stroke-width="1.5" fill-rule="evenodd"/>
      <path id="패스_13" data-name="패스 13" d="M17.9,4a1.557,1.557,0,0,1,1.473,1.045l.046.16.87,3.666a2.729,2.729,0,0,1-.491,2.309,2.464,2.464,0,0,1-2.006,1,2.525,2.525,0,0,1-1.863-.829,2.549,2.549,0,0,1-3.747.017,2.577,2.577,0,0,1-1.882.8,2.522,2.522,0,0,1-1.752-.725l-.11-.113a2.5,2.5,0,0,1-1.863.838,2.435,2.435,0,0,1-1.861-.826l-.1-.126A2.689,2.689,0,0,1,4.031,9.1l.043-.225L4.91,5.217A1.561,1.561,0,0,1,6.259,4.009Z" transform="translate(-4 -4)" fill="none" stroke="#34303d" stroke-width="1.5"/>
      <path id="패스_14" data-name="패스 14" d="M12.082,4.25V8.085M8.809,4.25,8.4,8.085" transform="translate(-3.9 -3.994)" fill="none" stroke="#34303d" stroke-linecap="round" stroke-linejoin="round" stroke-width="1.5" fill-rule="evenodd"/>
      <path id="패스_15" data-name="패스 15" d="M.409,3.835,0,0" transform="translate(11.863 4.091) rotate(180)" fill="none" stroke="#34303d" stroke-linecap="round" stroke-linejoin="round" stroke-width="1.5" fill-rule="evenodd"/>
    </g>
  </g>
</svg>
