<svg xmlns="http://www.w3.org/2000/svg" width="34" height="50" viewBox="0 0 34 50">
  <g id="map-pin" transform="translate(-3 -5)">
    <g id="그룹_343" data-name="그룹 343">
      <g id="그룹_342" data-name="그룹 342">
        <g id="그룹_339" data-name="그룹 339">
          <path id="패스_27" data-name="패스 27" d="M36,22.286A16.146,16.146,0,0,0,20,6,16.145,16.145,0,0,0,4,22.286c0,3.216.912,5.4,2.507,8.729L19.99,54,33.3,31.329c1.526-2.921,2.7-5.7,2.7-9.043" fill="#34303d"/>
          <path id="패스_28" data-name="패스 28" d="M36,22.286A16.146,16.146,0,0,0,20,6,16.145,16.145,0,0,0,4,22.286c0,3.216.912,5.4,2.507,8.729L19.99,54,33.3,31.329c1.526-2.921,2.7-5.7,2.7-9.043" fill="#00d1d2" stroke="#fff" stroke-linejoin="round" stroke-width="2"/>
        </g>
        <g id="그룹_341" data-name="그룹 341">
          <g id="그룹_340" data-name="그룹 340">
            <path id="패스_29" data-name="패스 29" d="M14.9,2.89l2.166,3.836,2.166,3.835a5.839,5.839,0,0,1,0,5.78,5.586,5.586,0,0,1-4.9,2.89H5.671a5.6,5.6,0,0,1-4.9-2.89,5.8,5.8,0,0,1,0-5.78L2.936,6.726,5.114,2.89a5.59,5.59,0,0,1,9.789,0m-4.888.453a7.288,7.288,0,0,0-5.23,2.216,7.7,7.7,0,0,0,0,10.7,7.28,7.28,0,0,0,10.46,0,7.729,7.729,0,0,0-.012-10.717,7.252,7.252,0,0,0-5.218-2.2" transform="translate(10 11.385)" fill="#34303d"/>
          </g>
        </g>
      </g>
    </g>
  </g>
</svg>
