<?xml version="1.0" encoding="utf-8"?>
<!-- Generator: Adobe Illustrator 21.0.2, SVG Export Plug-In . SVG Version: 6.00 Build 0)  -->
<svg version="1.1" id="레이어_1" xmlns="http://www.w3.org/2000/svg" xmlns:xlink="http://www.w3.org/1999/xlink" x="0px"
	 y="0px" viewBox="0 0 38 27" style="enable-background:new 0 0 38 27;" xml:space="preserve">
<style type="text/css">
	.st0{fill:#FFFFFF;}
	.st1{fill:#A8A8A8;}
</style>
<g>
	<path class="st0" d="M13.5,25.7c-0.7,0-1.3-0.3-1.8-0.8l-7.7-8c-1-1-1-2.7,0-3.7c0.5-0.5,1.1-0.8,1.8-0.8c0.7,0,1.3,0.3,1.8,0.8
		l5.9,6.1L30.1,2.1c0.5-0.5,1.1-0.8,1.8-0.8s1.3,0.3,1.8,0.8c1,1,1,2.7,0,3.7L15.3,24.9C14.8,25.4,14.2,25.7,13.5,25.7z"/>
	<path class="st1" d="M31.9,2c0.5,0,0.9,0.2,1.3,0.6c0.7,0.7,0.7,2,0,2.7L14.8,24.4C14.4,24.8,14,25,13.5,25c-0.5,0-1-0.2-1.3-0.6
		l-7.7-8c-0.7-0.7-0.7-2,0-2.7c0.4-0.4,0.8-0.6,1.3-0.6c0.5,0,0.9,0.2,1.3,0.6l6.4,6.7L30.6,2.6C31,2.2,31.4,2,31.9,2 M31.9,0.6
		c-0.9,0-1.7,0.4-2.3,1L13.5,18.3l-5.4-5.6c-0.6-0.6-1.4-1-2.3-1s-1.7,0.4-2.3,1c-1.2,1.3-1.2,3.4,0,4.7l7.7,8c0.6,0.6,1.5,1,2.3,1
		c0.9,0,1.7-0.4,2.3-1L34.2,6.3c1.2-1.3,1.2-3.4,0-4.7C33.6,0.9,32.8,0.6,31.9,0.6L31.9,0.6z"/>
</g>
</svg>
