<?xml version="1.0" standalone="no"?>
<!DOCTYPE svg PUBLIC "-//W3C//DTD SVG 20010904//EN"
 "http://www.w3.org/TR/2001/REC-SVG-20010904/DTD/svg10.dtd">
<svg version="1.0" xmlns="http://www.w3.org/2000/svg"
 width="66.000000pt" height="85.000000pt" viewBox="0 0 66.000000 85.000000"
 preserveAspectRatio="xMidYMid meet">

<g transform="translate(0.000000,85.000000) scale(0.100000,-0.100000)"
fill="#000000" stroke="none">
<path d="M2 573 c3 -243 5 -282 21 -310 25 -47 57 -64 140 -76 l73 -10 44 -84
c25 -46 47 -83 50 -83 3 0 26 38 50 85 l45 85 118 0 117 0 0 261 c0 286 -6
325 -52 364 -47 40 -89 45 -356 45 l-253 0 3 -277z m413 51 c29 -12 45 -60 45
-137 0 -54 4 -78 15 -87 19 -15 20 -40 2 -40 -8 0 -22 9 -31 19 -14 16 -34 20
-113 23 -90 3 -96 5 -119 31 -21 25 -24 38 -24 113 l0 84 104 0 c57 0 112 -3
121 -6z"/>
<path d="M230 539 c0 -94 5 -99 105 -99 l85 0 0 64 c0 84 -15 96 -117 96 l-73
0 0 -61z"/>
</g>
</svg>
