<?xml version="1.0" encoding="utf-8"?>
<!-- Generator: Adobe Illustrator 21.0.2, SVG Export Plug-In . SVG Version: 6.00 Build 0)  -->
<svg version="1.1" id="레이어_1" xmlns="http://www.w3.org/2000/svg" xmlns:xlink="http://www.w3.org/1999/xlink" x="0px"
	 y="0px" viewBox="0 0 48 60" style="enable-background:new 0 0 48 60;" xml:space="preserve">
<style type="text/css">
	.st0{fill:#0F78B7;}
	.st1{fill:#FFFFFF;}
</style>
<path class="st0" d="M44.7,3.3c-0.2-0.1-0.5-0.4-0.6-0.5C42,1,38.7,0.2,34.2,0H0.1v10.5v13.1v10.5c0.1,4.7,1.3,7.6,3.3,9.6
	c0.2,0.1,0.5,0.4,0.6,0.5c2.2,1.7,5.4,2.5,9.9,2.8h3L24,60l7.2-12.9H48V36.6V23.4V12.9C47.9,8.2,46.7,5.3,44.7,3.3z"/>
<path class="st1" d="M38.6,33.3l-3-3V20c0-2.6-0.7-4.3-2-5.5c-2-2-5.3-2.3-8.5-2.3H11.9c-1,0-1.7,0.6-1.7,1.5v10.4
	c0,2.6,0.7,4.3,2,5.5c2,2,5.3,2.3,8.5,2.3h11.9l3.6,3.6c0.6,0.6,1.5,0.6,2.2-0.1C39.2,34.7,39.2,33.8,38.6,33.3z M32.3,29.1H19
	c-1.8-0.1-3-0.4-3.9-1.1c0,0-0.2-0.2-0.2-0.2c-0.7-0.8-1.2-1.9-1.3-3.7v-9.1h13.3c1.8,0.1,3,0.4,3.9,1.1c0,0,0.2,0.2,0.2,0.2
	c0.7,0.8,1.2,1.9,1.3,3.7V29.1z"/>
</svg>
